<svg width="143" height="40" viewBox="0 0 143 40" fill="none" xmlns="http://www.w3.org/2000/svg">
<path d="M58.0049 22.3666L56.0129 17.2747H49.5897L47.6158 22.3666H45.7322L52.0696 6.28735H53.6324L59.9337 22.3666H58.0049ZM55.4302 15.6L53.5692 10.639C53.3253 10.0115 53.0814 9.2441 52.8239 8.32774C52.6613 9.02742 52.4309 9.79934 52.1328 10.639L50.2492 15.6H55.4302Z" fill="black"/>
<path d="M73.8951 22.3666L71.8985 17.2747H65.4799L63.5059 22.3666H61.6223L67.9552 6.28735H69.5226L75.8238 22.3666H73.8951ZM71.3204 15.6L69.4593 10.639C69.2199 10.0115 68.9715 9.2441 68.714 8.32774C68.5514 9.02742 68.3211 9.79934 68.0229 10.639L66.1393 15.6H71.3204Z" fill="black"/>
<path d="M91.0451 14.2103C91.0451 16.851 90.3269 18.8734 88.8905 20.2727C87.4541 21.6676 85.3898 22.3673 82.6932 22.3673H78.2529V6.35571H83.1629C85.6563 6.35571 87.5896 7.04637 88.9718 8.42769C90.354 9.80901 91.0451 11.7365 91.0451 14.2103ZM89.0712 14.2735C89.0712 12.1834 88.5427 10.6125 87.4993 9.55622C86.4513 8.49992 84.8929 7.96725 82.8242 7.96725H80.1185V20.7603H82.3905C84.6129 20.7603 86.2797 20.2141 87.3999 19.1216C88.5201 18.0292 89.0757 16.4132 89.0757 14.2735" fill="black"/>
<path d="M96.3215 15.709V22.3673H94.4604V6.35571H98.8555C100.82 6.35571 102.275 6.73038 103.21 7.48424C104.149 8.2381 104.619 9.36663 104.619 10.8789C104.619 12.996 103.544 14.427 101.399 15.1718L105.748 22.3673H103.544L99.6686 15.709H96.326H96.3215ZM96.3215 14.111H98.8781C100.193 14.111 101.159 13.8492 101.774 13.33C102.388 12.8064 102.695 12.0254 102.695 10.9827C102.695 9.93992 102.383 9.1635 101.76 8.69403C101.132 8.22907 100.134 7.99434 98.7516 7.99434H96.3305V14.1155L96.3215 14.111Z" fill="black"/>
<path d="M112.079 6.35571H110.214V22.3673H112.079V6.35571Z" fill="black"/>
<path d="M117.983 22.3673V6.35571H119.844V20.6835H126.913V22.3673H117.983Z" fill="black"/>
<path d="M141.071 22.3666L139.079 17.2747H132.656L130.682 22.3666H128.799L135.136 6.28735H136.699L143 22.3666H141.071ZM138.497 15.6L136.636 10.639C136.392 10.0115 136.148 9.2441 135.89 8.32774C135.728 9.02742 135.497 9.79934 135.199 10.639L133.316 15.6H138.497Z" fill="black"/>
<path d="M48.4357 34.2657H47.451V29.0609H45.6667V28.2168H50.2199V29.0609H48.4357V34.2657Z" fill="black"/>
<path d="M57.6221 34.2657H54.1982V28.2168H57.6221V29.0519H55.1875V30.6996H57.4686V31.5256H55.1875V33.4261H57.6221V34.2657Z" fill="black"/>
<path d="M64.5542 28.9754C63.9851 28.9754 63.5379 29.1785 63.2127 29.5803C62.8874 29.982 62.7248 30.5372 62.7248 31.2505C62.7248 31.9637 62.8784 32.5551 63.1946 32.9342C63.5063 33.3134 63.958 33.503 64.5542 33.503C64.8072 33.503 65.0601 33.4805 65.2995 33.4263C65.5389 33.3766 65.7874 33.3089 66.0494 33.2322V34.0763C65.5751 34.2569 65.0375 34.3472 64.4368 34.3472C63.5514 34.3472 62.8739 34.0763 62.3951 33.5437C61.9208 33.0065 61.6814 32.2391 61.6814 31.2415C61.6814 30.6095 61.7943 30.0633 62.0292 29.5893C62.2596 29.1198 62.5893 28.7587 63.0275 28.5059C63.4656 28.2531 63.976 28.1267 64.5633 28.1267C65.1821 28.1267 65.7512 28.2531 66.2752 28.5149L65.9184 29.341C65.7106 29.2417 65.4938 29.1604 65.2679 29.0882C65.0375 29.016 64.8027 28.9799 64.5497 28.9799" fill="black"/>
<path d="M75.1773 34.2657H74.1836V31.5392H71.3921V34.2657H70.4028V28.2168H71.3921V30.6905H74.1836V28.2168H75.1773V34.2657Z" fill="black"/>
<path d="M84.8666 34.2657H83.6515L80.6748 29.4446H80.6431L80.6612 29.7155C80.7019 30.2256 80.7199 30.6951 80.7199 31.1194V34.2657H79.821V28.2168H81.0226L83.9903 33.0108H84.0174C84.0128 32.9476 83.9993 32.7174 83.9812 32.3156C83.9677 31.9184 83.9586 31.6069 83.9586 31.3857V28.2168H84.8666V34.2657Z" fill="black"/>
<path d="M94.8848 31.2321C94.8848 32.2161 94.6364 32.9835 94.144 33.5297C93.6562 34.076 92.956 34.3513 92.0526 34.3513C91.1492 34.3513 90.4401 34.0805 89.9477 33.5388C89.4553 32.9971 89.2114 32.2252 89.2114 31.2275C89.2114 30.2299 89.4553 29.4625 89.9522 28.9253C90.4446 28.3882 91.1492 28.1218 92.0617 28.1218C92.9741 28.1218 93.6562 28.3927 94.1485 28.9389C94.6409 29.4851 94.8893 30.248 94.8893 31.2366M90.2594 31.2321C90.2594 31.9769 90.4084 32.5412 90.7111 32.9249C91.0092 33.3086 91.4564 33.5027 92.0481 33.5027C92.6398 33.5027 93.0825 33.3131 93.3806 32.9339C93.6788 32.5547 93.8323 31.9859 93.8323 31.2321C93.8323 30.4782 93.6833 29.9275 93.3852 29.5438C93.0915 29.1601 92.6489 28.9705 92.0571 28.9705C91.4654 28.9705 91.0182 29.1601 90.7156 29.5438C90.413 29.9275 90.2594 30.4917 90.2594 31.2321Z" fill="black"/>
<path d="M99.2305 34.2657V28.2168H100.215V33.4171H102.781V34.2657H99.2305Z" fill="black"/>
<path d="M112.253 31.2321C112.253 32.2161 112.009 32.9835 111.512 33.5297C111.02 34.076 110.32 34.3513 109.421 34.3513C108.522 34.3513 107.804 34.0805 107.316 33.5388C106.828 32.9971 106.58 32.2252 106.58 31.2275C106.58 30.2299 106.828 29.4625 107.32 28.9253C107.808 28.3882 108.517 28.1218 109.43 28.1218C110.342 28.1218 111.024 28.3927 111.517 28.9389C112.009 29.4851 112.257 30.248 112.257 31.2366M107.632 31.2321C107.632 31.9769 107.781 32.5412 108.084 32.9249C108.386 33.3086 108.834 33.5027 109.421 33.5027C110.008 33.5027 110.455 33.3131 110.753 32.9339C111.051 32.5547 111.2 31.9859 111.2 31.2321C111.2 30.4782 111.051 29.9275 110.758 29.5438C110.46 29.1601 110.017 28.9705 109.43 28.9705C108.843 28.9705 108.391 29.1601 108.088 29.5438C107.786 29.9275 107.632 30.4917 107.632 31.2321Z" fill="black"/>
<path d="M119.073 30.9842H121.3V34.0222C120.934 34.144 120.582 34.2253 120.248 34.2749C119.913 34.3246 119.552 34.3517 119.164 34.3517C118.247 34.3517 117.537 34.0808 117.045 33.5391C116.548 32.9975 116.3 32.23 116.3 31.246C116.3 30.2619 116.575 29.508 117.14 28.9618C117.7 28.4111 118.472 28.1357 119.453 28.1357C120.085 28.1357 120.681 28.2576 121.25 28.5014L120.903 29.3275C120.415 29.1018 119.922 28.9889 119.43 28.9889C118.784 28.9889 118.274 29.192 117.899 29.5983C117.519 30.0046 117.334 30.5598 117.334 31.264C117.334 32.0043 117.501 32.5686 117.84 32.9523C118.179 33.336 118.667 33.5301 119.299 33.5301C119.62 33.5301 119.963 33.4895 120.324 33.4127V31.8509H119.073V31.0022V30.9842Z" fill="black"/>
<path d="M126.785 28.2168H125.796V34.2657H126.785V28.2168Z" fill="black"/>
<path d="M134.852 34.2657H131.428V28.2168H134.852V29.0519H132.417V30.6996H134.698V31.5256H132.417V33.4261H134.852V34.2657Z" fill="black"/>
<path d="M142.698 32.6227C142.698 33.1598 142.504 33.5842 142.115 33.8911C141.727 34.1981 141.189 34.3516 140.507 34.3516C139.825 34.3516 139.26 34.2432 138.827 34.0311V33.0966C139.102 33.2275 139.396 33.3269 139.707 33.4036C140.019 33.4758 140.304 33.5164 140.575 33.5164C140.968 33.5164 141.257 33.4397 141.442 33.2907C141.632 33.1418 141.722 32.9386 141.722 32.6904C141.722 32.4647 141.636 32.2751 141.469 32.1171C141.297 31.9591 140.941 31.774 140.408 31.5573C139.857 31.3316 139.468 31.0788 139.242 30.7944C139.012 30.5055 138.903 30.1625 138.903 29.7607C138.903 29.2551 139.084 28.8579 139.441 28.569C139.802 28.2801 140.286 28.1311 140.886 28.1311C141.487 28.1311 142.047 28.2575 142.621 28.5103L142.305 29.3183C141.767 29.0926 141.284 28.9798 140.864 28.9798C140.543 28.9798 140.299 29.052 140.132 29.1919C139.969 29.3319 139.884 29.5169 139.884 29.7426C139.884 29.9006 139.915 30.0361 139.983 30.1444C140.046 30.2573 140.159 30.3656 140.308 30.4604C140.457 30.5597 140.733 30.6906 141.13 30.8576C141.573 31.0427 141.898 31.2142 142.106 31.3768C142.314 31.5348 142.467 31.7153 142.562 31.9185C142.662 32.1216 142.707 32.3563 142.707 32.6317" fill="black"/>
<g opacity="0.58">
<mask id="mask0_0_43076" style="mask-type:luminance" maskUnits="userSpaceOnUse" x="0" y="3" width="37" height="37">
<path d="M36.5562 3.26807H0V39.8008H36.5562V3.26807Z" fill="white"/>
</mask>
<g mask="url(#mask0_0_43076)">
<mask id="mask1_0_43076" style="mask-type:luminance" maskUnits="userSpaceOnUse" x="0" y="3" width="37" height="37">
<path d="M36.5562 3.26807H0V39.8008H36.5562V3.26807Z" fill="white"/>
</mask>
<g mask="url(#mask1_0_43076)">
<path d="M36.4931 20.0372C37.3197 30.0901 29.835 38.9107 19.7756 39.7368C9.71623 40.5629 0.889975 33.083 0.06336 23.03C-0.763255 12.9771 6.72145 4.15649 16.7809 3.33041C26.8403 2.50433 35.6665 9.98422 36.4931 20.0372Z" fill="#B7C5E5"/>
</g>
</g>
</g>
<g opacity="0.31">
<mask id="mask2_0_43076" style="mask-type:luminance" maskUnits="userSpaceOnUse" x="28" y="5" width="14" height="14">
<path d="M41.6744 5.29077H28.0872V18.8692H41.6744V5.29077Z" fill="white"/>
</mask>
<g mask="url(#mask2_0_43076)">
<mask id="mask3_0_43076" style="mask-type:luminance" maskUnits="userSpaceOnUse" x="28" y="5" width="14" height="14">
<path d="M41.6744 5.29077H28.0872V18.8692H41.6744V5.29077Z" fill="white"/>
</mask>
<g mask="url(#mask3_0_43076)">
<path d="M41.6467 11.5254C41.9539 15.263 39.1714 18.5403 35.4313 18.8473C31.6912 19.1542 28.4119 16.3735 28.1047 12.6358C27.7976 8.89814 30.58 5.62089 34.3201 5.31393C38.0602 5.00697 41.3396 7.78767 41.6467 11.5254Z" fill="#EE6727"/>
</g>
</g>
</g>
<g opacity="0.58">
<mask id="mask4_0_43076" style="mask-type:luminance" maskUnits="userSpaceOnUse" x="28" y="0" width="5" height="5">
<path d="M32.7973 0H28.479V4.3155H32.7973V0Z" fill="white"/>
</mask>
<g mask="url(#mask4_0_43076)">
<mask id="mask5_0_43076" style="mask-type:luminance" maskUnits="userSpaceOnUse" x="28" y="0" width="5" height="5">
<path d="M32.7973 0H28.479V4.3155H32.7973V0Z" fill="white"/>
</mask>
<g mask="url(#mask5_0_43076)">
<path d="M32.7883 1.98174C32.8877 3.16895 32.0023 4.21172 30.8143 4.31103C29.6264 4.40582 28.5829 3.52557 28.4881 2.33384C28.3887 1.14663 29.274 0.103868 30.462 0.00907142C31.65 -0.0902392 32.6934 0.794528 32.7883 1.98174Z" fill="#719AD0"/>
</g>
</g>
</g>
<path d="M19.6367 17.8261C19.3612 16.684 18.6565 15.7135 17.6537 15.0995C16.6464 14.4856 15.4675 14.296 14.3202 14.5714C13.1774 14.8467 12.2062 15.5464 11.5919 16.5531C10.9776 17.5597 10.7879 18.7424 11.0634 19.8845C11.3389 21.0266 12.0436 21.9971 13.0509 22.6155C13.8594 23.1121 14.7854 23.3288 15.7114 23.252C15.9373 23.2295 16.1586 23.1979 16.3845 23.1437C17.5273 22.8683 18.4984 22.1686 19.1127 21.162C19.7271 20.1553 19.9168 18.9726 19.6412 17.8306M13.6381 21.6405C12.8928 21.1846 12.3688 20.4668 12.1656 19.6182C11.9623 18.774 12.1023 17.8938 12.5631 17.1489C13.0193 16.4041 13.7375 15.8805 14.5867 15.6773C14.7538 15.6367 14.9209 15.6096 15.0881 15.5961C15.7747 15.5374 16.4612 15.6999 17.062 16.0701C17.8073 16.526 18.3313 17.2437 18.5346 18.0924C18.7378 18.9365 18.5978 19.8168 18.1416 20.5616C17.6854 21.3064 16.9626 21.8301 16.118 22.0332C15.2688 22.2364 14.3924 22.0964 13.6471 21.6405" fill="#403644"/>
<path d="M18.143 1.67979C17.8132 1.76556 17.5422 1.97321 17.3706 2.26663C17.1989 2.56005 17.1492 2.89861 17.2351 3.22814C17.3209 3.55315 17.5332 3.82852 17.8223 4.00005C18.1159 4.17159 18.4592 4.22124 18.7844 4.13548C19.1141 4.04971 19.3852 3.83754 19.5568 3.54864C19.7284 3.25522 19.7781 2.91215 19.6923 2.58713C19.5161 1.91001 18.8205 1.49923 18.143 1.67979Z" fill="white"/>
<path d="M37.2906 23.7891H37.2771C36.979 23.8117 36.726 23.9742 36.5815 24.227C36.4324 24.4843 36.4189 24.7867 36.5499 25.0621C36.6989 25.3736 37.0467 25.5767 37.3945 25.5541C37.7107 25.5406 37.9547 25.3736 38.1082 25.1162C38.2573 24.8589 38.2708 24.5565 38.1398 24.2811C37.9908 23.9651 37.643 23.7665 37.2952 23.7891" fill="white"/>
<path d="M40.3281 11.1009C40.1655 10.4373 39.759 9.87304 39.1763 9.51643C38.5936 9.15981 37.907 9.05147 37.2385 9.20947C35.8653 9.539 35.0161 10.9203 35.3458 12.2926C35.4497 12.7169 35.653 13.1006 35.9421 13.4166L30.4042 21.7407C29.8035 21.5375 29.1395 21.4924 28.48 21.6549C27.572 21.8716 26.7951 22.4358 26.3073 23.2348C26.2892 23.2619 26.2757 23.2935 26.2621 23.3206L16.0627 18.3054L18.5425 4.66375C18.5651 4.66375 18.5877 4.66375 18.6148 4.66375C18.7142 4.65472 18.8181 4.64118 18.9174 4.61409C19.3737 4.49672 19.7531 4.20782 19.9925 3.80155C20.2319 3.39528 20.2951 2.9213 20.1777 2.46988C19.9338 1.53546 18.9716 0.971197 18.0321 1.21496C17.5804 1.33233 17.1965 1.62123 16.9616 2.0275C16.7222 2.42926 16.6589 2.90324 16.7764 3.35917C16.8938 3.81509 17.1829 4.19428 17.5894 4.42901C17.6888 4.49221 17.7972 4.53284 17.9056 4.57346L15.358 18.5898L14.8566 18.2332L5.6645 31.2519C5.15859 31.0894 4.61655 31.0623 4.08354 31.1887C3.32017 31.3693 2.67875 31.8387 2.26318 32.5068C1.85213 33.1749 1.73017 33.9649 1.91086 34.7233C2.09154 35.4862 2.56131 36.1317 3.22983 36.5425C3.76735 36.872 4.38167 37.0164 5.0005 36.9668C5.14956 36.9532 5.29862 36.9307 5.44768 36.8946C6.21106 36.714 6.85699 36.24 7.26804 35.5719C7.67909 34.9038 7.80105 34.1139 7.62037 33.3555C7.48486 32.7957 7.19577 32.2992 6.78472 31.911L15.3625 19.759L19.9744 30.5928C19.6266 30.9088 19.455 31.3964 19.5814 31.8839C19.7441 32.4978 20.3267 32.8996 20.9411 32.8454C21.0133 32.8409 21.0901 32.8273 21.1624 32.8093C21.4967 32.7235 21.7767 32.5114 21.9529 32.2089C22.129 31.911 22.1787 31.5634 22.0884 31.2248C22.0026 30.8908 21.7903 30.6109 21.4921 30.4394C21.2076 30.2723 20.8778 30.2227 20.5571 30.2949L15.9769 19.5378L25.8601 24.395C25.7607 24.887 25.7652 25.3926 25.8872 25.8937C26.104 26.8055 26.6686 27.5774 27.4682 28.0695C28.1096 28.4667 28.8458 28.6382 29.5866 28.5796C29.7673 28.5615 29.948 28.5344 30.1242 28.4938C31.6283 28.1327 32.6763 26.8461 32.8073 25.3836L36.046 25.1037C36.0641 25.1669 36.0866 25.2256 36.1137 25.2842C36.3486 25.7808 36.8816 26.0923 37.4327 26.0516H37.4553C37.907 26.0155 38.309 25.7627 38.5349 25.3745C38.7652 24.9818 38.7833 24.4988 38.5891 24.0835C38.3497 23.5824 37.8212 23.2755 37.2701 23.3116C36.8048 23.3432 36.3983 23.596 36.1679 23.9887C36.0821 24.1331 36.0279 24.2866 36.0008 24.4491L32.8028 24.7245C32.7847 24.571 32.7621 24.413 32.726 24.255C32.5272 23.4335 32.0575 22.7518 31.4296 22.2778L36.8862 14.0757C37.2565 14.2247 37.654 14.2878 38.0515 14.2563C38.1825 14.2472 38.3135 14.2247 38.4445 14.1931C39.8177 13.8635 40.6669 12.4822 40.3417 11.1099M17.2371 3.22826C17.1513 2.90324 17.201 2.56017 17.3726 2.26675C17.5443 1.97333 17.8153 1.76568 18.145 1.67991C18.8226 1.49935 19.5182 1.91013 19.6944 2.58725C19.7802 2.91678 19.735 3.25986 19.5589 3.54876C19.3872 3.84218 19.1162 4.04983 18.7864 4.13559C18.4612 4.22136 18.1179 4.17622 17.8243 4.00468C17.5307 3.83315 17.3229 3.55779 17.2371 3.22826ZM6.28785 34.9761C6.0349 35.3868 5.64191 35.6712 5.17666 35.7841C4.71141 35.8924 4.22809 35.8157 3.82156 35.5674C3.41502 35.3191 3.12593 34.9219 3.01301 34.4569C2.9046 33.992 2.98139 33.509 3.22983 33.1027C3.48278 32.6919 3.87576 32.4075 4.34101 32.2947C4.43135 32.2721 4.52621 32.2586 4.61655 32.2495C4.99598 32.2179 5.37089 32.3082 5.69612 32.5113C6.10717 32.7641 6.39174 33.1569 6.50467 33.6218C6.61759 34.0868 6.5408 34.5698 6.28785 34.9761ZM36.579 24.2279C36.7281 23.9751 36.981 23.8172 37.2746 23.7946C37.2791 23.7946 37.2836 23.7946 37.2927 23.7946C37.6405 23.772 37.9883 23.9752 38.1374 24.2911C38.2684 24.562 38.2548 24.8644 38.1057 25.1217C37.9567 25.379 37.7082 25.5461 37.3921 25.5596C37.0442 25.5822 36.6964 25.379 36.5474 25.0676C36.4164 24.7922 36.4299 24.4898 36.579 24.2325M28.742 22.7654C28.8639 22.7338 28.9859 22.7157 29.1033 22.7067C29.3201 22.6886 29.5324 22.7067 29.7402 22.7428L28.5884 24.4717L27.2784 23.8307C27.6127 23.2935 28.1322 22.9143 28.742 22.7699M31.6058 24.5168C31.6283 24.6207 31.6464 24.72 31.6554 24.8193L29.8938 24.9728L29.9525 25.6228L31.6374 25.4784C31.4793 26.3812 30.8017 27.1531 29.8531 27.3788C29.2388 27.5278 28.6019 27.4239 28.0599 27.0944C27.5178 26.7604 27.1384 26.2412 26.9894 25.6273C26.9352 25.3971 26.9126 25.1579 26.9306 24.9276L28.9859 25.9388L30.7837 23.2348C31.1812 23.5508 31.4793 23.9977 31.6058 24.5259M38.169 13.0781C37.7986 13.1638 37.4192 13.1052 37.0939 12.9065C36.7687 12.7079 36.5429 12.3964 36.4525 12.0263C36.2673 11.2634 36.7416 10.496 37.505 10.3154C37.8709 10.2297 38.2548 10.2883 38.58 10.487C38.9007 10.6856 39.1311 10.9971 39.2169 11.3672C39.3976 12.1301 38.9278 12.8975 38.1645 13.0781" fill="#403644"/>
<path d="M5.6969 17.1443C5.97696 17.3068 6.28863 17.3745 6.60483 17.3519C6.69517 17.3429 6.78551 17.3294 6.87133 17.3068C7.26883 17.203 7.58502 16.9547 7.78377 16.6342L11.1489 17.8079L11.3612 17.1939L8.00962 16.0248C8.03672 15.8307 8.02769 15.623 7.97348 15.4199C7.75667 14.5938 6.91198 14.1018 6.08537 14.3139C5.68787 14.4178 5.35361 14.6751 5.14131 15.0317C4.93353 15.3883 4.87481 15.8036 4.9787 16.2054C5.08259 16.6026 5.34006 16.9366 5.69239 17.1488M5.56591 15.2754C5.71046 15.0317 5.93631 14.8556 6.21185 14.7879C6.27508 14.7699 6.3338 14.7608 6.39253 14.7563C6.89392 14.7157 7.37272 15.0362 7.50371 15.5418C7.65278 16.106 7.314 16.6839 6.74937 16.8328C6.47383 16.905 6.18926 16.8644 5.94534 16.72C5.70142 16.5755 5.52526 16.3498 5.45299 16.0744C5.38523 15.7991 5.42137 15.5192 5.56591 15.2709" fill="#403644"/>
<path d="M17.057 16.0705C16.4562 15.7004 15.7697 15.5424 15.0876 15.5966C14.9205 15.6101 14.7533 15.6372 14.5862 15.6778C13.737 15.8809 13.0188 16.4046 12.5626 17.1494C12.1064 17.8942 11.9663 18.7745 12.1696 19.6186C12.3729 20.4673 12.8923 21.185 13.6421 21.641C14.3875 22.0969 15.2683 22.2368 16.113 22.0337C16.9622 21.8306 17.6804 21.3069 18.1366 20.5621C18.5928 19.8173 18.7328 18.937 18.5296 18.0929C18.3263 17.2442 17.8023 16.5265 17.057 16.0705Z" fill="white"/>
<path d="M15.9948 21.1268C17.237 20.8018 17.9823 19.5288 17.6571 18.2874C17.3319 17.0461 16.0581 16.3012 14.8159 16.6262C13.5737 16.9513 12.8284 18.2242 13.1536 19.4656C13.4789 20.707 14.7527 21.4518 15.9948 21.1268Z" fill="#CD6028"/>
<path d="M29.1031 22.7055C28.9812 22.7146 28.8637 22.7326 28.7418 22.7642C28.1275 22.9132 27.6035 23.2924 27.2737 23.8341C26.9395 24.3758 26.8401 25.0122 26.9846 25.6262C27.1337 26.2401 27.5131 26.7637 28.0552 27.0933C28.5972 27.4228 29.2341 27.5266 29.8484 27.3776C31.1222 27.0707 31.9082 25.7887 31.6056 24.5157C31.33 23.3646 30.2505 22.6107 29.1031 22.7055Z" fill="white"/>
<path d="M28.885 23.4688C28.0358 23.69 27.5254 24.5612 27.7467 25.4099C27.9681 26.2585 28.8398 26.7641 29.689 26.5474C30.5382 26.3263 31.0487 25.455 30.8273 24.6064C30.606 23.7577 29.7342 23.2521 28.885 23.4688Z" fill="#3E6EB4"/>
<path d="M20.7787 30.7232C20.7787 30.7232 20.7697 30.7232 20.7652 30.7232C20.4806 30.7458 20.2367 30.8993 20.0967 31.143C19.9521 31.3913 19.9386 31.6847 20.065 31.9465C20.2096 32.2445 20.5438 32.4431 20.8781 32.4205C21.1807 32.407 21.4202 32.249 21.5602 32.0007C21.7047 31.7524 21.7138 31.459 21.5918 31.1972C21.4473 30.8948 21.1175 30.7006 20.7832 30.7232" fill="white"/>
<path d="M38.6387 10.3872C38.2864 10.175 37.8754 10.1073 37.4779 10.2021C36.6513 10.4007 36.1454 11.2313 36.3396 12.0529C36.4344 12.4546 36.6829 12.7887 37.0307 13.0054C37.383 13.2175 37.7941 13.2852 38.1916 13.1904C39.0182 12.9918 39.5241 12.1612 39.3299 11.3351C39.235 10.9379 38.9911 10.5993 38.6387 10.3827" fill="white"/>
<path d="M37.6663 10.9962C37.2688 11.1001 37.034 11.5063 37.1379 11.9036C37.2417 12.3008 37.6483 12.5356 38.0458 12.4317C38.4388 12.3279 38.6782 11.9216 38.5743 11.5244C38.4704 11.1271 38.0638 10.8924 37.6663 10.9962Z" fill="#CD6028"/>
</svg>
